<?xml version="1.0" encoding="UTF-8"?> <svg xmlns="http://www.w3.org/2000/svg" width="40" height="40" viewBox="0 0 40 40" fill="none"><path d="M36.8789 30.0098L36.8789 30.5098C37.0811 30.5098 37.2635 30.3879 37.3408 30.2011C37.4182 30.0143 37.3755 29.7992 37.2325 29.6562L36.8789 30.0098ZM22.4212 30.0098V29.5098C22.145 29.5098 21.9212 29.7336 21.9212 30.0098H22.4212ZM30.2031 23.334L30.2031 22.834C30.0009 22.834 29.8186 22.9558 29.7412 23.1426C29.6638 23.3295 29.7066 23.5445 29.8496 23.6875L30.2031 23.334ZM35.9297 23.334V23.834C36.1319 23.834 36.3142 23.7122 36.3916 23.5253C36.469 23.3385 36.4262 23.1234 36.2832 22.9804L35.9297 23.334ZM30.1855 17.5898L30.1855 17.0898C29.9833 17.0898 29.801 17.2117 29.7236 17.3985C29.6462 17.5853 29.689 17.8004 29.832 17.9434L30.1855 17.5898ZM33.5918 17.5898L33.5918 18.0898C33.794 18.0898 33.9763 17.968 34.0537 17.7812C34.1311 17.5943 34.0883 17.3793 33.9454 17.2363L33.5918 17.5898ZM19.3522 3.35029L19.7058 2.99674C19.5105 2.80148 19.194 2.80148 18.9987 2.99674L19.3522 3.35029ZM5.1127 17.5898L4.75915 17.2363C4.61615 17.3793 4.57337 17.5943 4.65076 17.7812C4.72815 17.968 4.91047 18.0898 5.1127 18.0898V17.5898ZM10.0787 17.5898L10.4323 17.9434C10.5753 17.8004 10.6181 17.5853 10.5407 17.3985C10.4633 17.2117 10.281 17.0898 10.0787 17.0898V17.5898ZM4.33459 23.334L3.98103 22.9804C3.83803 23.1234 3.79526 23.3385 3.87265 23.5253C3.95004 23.7122 4.13236 23.834 4.33459 23.834V23.334ZM10.6886 23.334L11.0421 23.6875C11.1851 23.5445 11.2279 23.3295 11.1505 23.1426C11.0731 22.9558 10.8908 22.834 10.6886 22.834V23.334ZM4.01277 30.0098L3.65922 29.6562C3.51622 29.7992 3.47344 30.0143 3.55083 30.2011C3.62822 30.3879 3.81054 30.5098 4.01277 30.5098V30.0098ZM16.6875 30.0098H17.1875C17.1875 29.7336 16.9636 29.5098 16.6875 29.5098V30.0098ZM16.6875 36.9345H16.1875C16.1875 37.2106 16.4114 37.4345 16.6875 37.4345V36.9345ZM22.4212 36.9345L22.4212 37.4345C22.6973 37.4345 22.9212 37.2106 22.9212 36.9345L22.4212 36.9345ZM36.8789 29.5098L22.4212 29.5098V30.5098L36.8789 30.5098L36.8789 29.5098ZM29.8496 23.6875L36.5254 30.3633L37.2325 29.6562L30.5567 22.9804L29.8496 23.6875ZM35.9297 22.834L30.2031 22.834L30.2031 23.834L35.9297 23.834V22.834ZM29.832 17.9434L35.5761 23.6875L36.2832 22.9804L30.5391 17.2363L29.832 17.9434ZM33.5918 17.0898L30.1855 17.0898L30.1855 18.0898L33.5918 18.0898L33.5918 17.0898ZM18.9987 3.70385L33.2382 17.9434L33.9454 17.2363L19.7058 2.99674L18.9987 3.70385ZM5.46625 17.9434L19.7058 3.70385L18.9987 2.99674L4.75915 17.2363L5.46625 17.9434ZM10.0787 17.0898H5.1127V18.0898H10.0787V17.0898ZM4.68814 23.6875L10.4323 17.9434L9.72517 17.2363L3.98103 22.9804L4.68814 23.6875ZM10.6886 22.834H4.33459V23.834H10.6886V22.834ZM4.36632 30.3633L11.0421 23.6875L10.335 22.9804L3.65922 29.6562L4.36632 30.3633ZM16.6875 29.5098L4.01277 29.5098V30.5098L16.6875 30.5098V29.5098ZM17.1875 36.9345L17.1875 30.0098H16.1875L16.1875 36.9345H17.1875ZM22.4212 36.4345L16.6875 36.4345V37.4345L22.4212 37.4345L22.4212 36.4345ZM21.9212 30.0098L21.9212 36.9345L22.9212 36.9345L22.9212 30.0098H21.9212Z" fill="#A38D44"></path></svg> 