<?xml version="1.0" encoding="UTF-8"?> <svg xmlns="http://www.w3.org/2000/svg" width="40" height="40" viewBox="0 0 40 40" fill="none"><path d="M14.2324 20.4629L19.0981 25.3286L26.7807 17.6459" stroke="#A38D44" stroke-linecap="round"></path><path d="M27.592 4.23256L27.594 4.23353L34.547 7.56284C34.9609 7.76099 35.2613 8.13766 35.3624 8.58522L37.061 16.1048L37.0615 16.107L38.7937 23.6189C38.8968 24.066 38.7896 24.5357 38.5027 24.8938L33.6827 30.9102L33.6814 30.9119L28.8883 36.9498C28.603 37.3092 28.169 37.5182 27.7101 37.5172L20.0011 37.5L19.9989 37.5L12.2899 37.5172C11.831 37.5182 11.397 37.3092 11.1117 36.9498L6.31865 30.9119L6.31725 30.9102L1.4973 24.8938L1.11147 25.2029L1.4973 24.8938C1.21042 24.5357 1.10321 24.066 1.20631 23.6189L2.93852 16.107L2.93901 16.1048L4.63764 8.58523C4.73875 8.13766 5.03913 7.76099 5.45297 7.56284L12.406 4.23353L12.408 4.23256L19.3462 0.872231C19.7591 0.672227 20.2409 0.672226 20.6538 0.872231L27.592 4.23256Z" stroke="#A38D44"></path></svg> 