<?xml version="1.0" encoding="UTF-8"?> <svg xmlns="http://www.w3.org/2000/svg" width="35" height="35" viewBox="0 0 35 35" fill="none"><path fill-rule="evenodd" clip-rule="evenodd" d="M27.6067 0.623047H23.9465C22.7802 13.293 12.6049 28.1842 8.3623 34.2503H15.7998C23.908 24.6074 27.6067 14.7773 27.6067 2.66495V0.623047ZM18.8498 34.2503H28.695C30.1683 34.2503 31.5814 33.665 32.6232 32.6232C33.665 31.5814 34.2503 30.1683 34.2503 28.695V6.1784C34.2503 4.70503 33.665 3.292 32.6232 2.25017C32.068 1.69494 31.4073 1.26937 30.6883 0.992965C30.6682 1.48921 30.6575 2.04471 30.6575 2.66495C30.6575 4.41434 30.7547 6.11557 30.8495 7.77513C31.2028 13.9594 31.5231 19.565 26.6575 24.9275C26.0422 25.6056 25.3391 26.3271 24.6074 27.078L24.6071 27.0783L24.607 27.0783C22.4106 29.3322 19.9569 31.8501 18.8498 34.2503ZM1.06242 30.8603C3.0066 28.4761 5.40085 26.0644 7.8737 23.5734C14.5571 16.841 21.8148 9.5302 22.3134 0.623047H17.4205C16.9286 10.4855 5.33575 20.1212 0.623047 23.1177V28.695C0.623047 29.4462 0.775192 30.1817 1.06242 30.8603ZM0.623047 20.1772C11.8632 12.4933 13.0585 7.26453 14.5492 0.744134V0.74413C14.5584 0.703819 14.5676 0.663458 14.5769 0.623047H10.6998C10.5297 1.03 10.3652 1.42845 10.2045 1.81773C7.95171 7.27502 6.44364 10.9282 0.623047 10.9283V20.1772ZM0.623047 7.67406C5.33323 7.67393 8.98966 4.79178 9.28189 0.623047H6.1784C4.70503 0.623047 3.292 1.20834 2.25017 2.25017C1.20834 3.292 0.623047 4.70503 0.623047 6.1784V7.67406Z" fill="#A38D44"></path></svg> 