<?xml version="1.0" encoding="UTF-8"?> <svg xmlns="http://www.w3.org/2000/svg" width="136" height="35" viewBox="0 0 136 35" fill="none"><path d="M53.6693 10.9413H54.9645C54.3323 14.4417 51.7109 15.737 49.2437 15.737C45.6663 15.737 43.3687 13.1927 43.3687 9.24513C43.3687 7.24053 43.9701 5.55975 45.0957 4.40325C46.1443 3.33927 47.6092 2.75331 49.2437 2.75331C52.1735 2.75331 54.2398 4.43409 54.8874 7.25595H53.5922C52.9291 4.89669 51.0479 4.01775 49.2437 4.01775C46.977 4.01775 44.6331 5.49807 44.6331 9.24513C44.6331 13.1156 46.977 14.4725 49.2437 14.4725C51.5876 14.4725 53.1758 13.2235 53.6693 10.9413ZM57.83 4.23363V8.19657H63.8284V9.41475L57.83 9.38391V14.2875H64.954V15.4902H56.581V3.01545H64.954V4.23363H57.83ZM73.117 9.04467C74.9674 9.32223 75.4608 10.818 75.4608 12.2058C75.4608 14.1795 74.2118 15.4902 71.3283 15.4902H66.4401V3.01545H71.1587C73.3329 3.01545 74.7053 4.71165 74.7053 6.53121C74.7053 7.33305 74.3198 8.62833 73.117 9.04467ZM70.7886 4.24905H67.6892V8.50497C68.6915 8.50497 70.0176 8.50497 70.7732 8.50497C72.5002 8.50497 73.4254 7.98069 73.4254 6.39243C73.4254 5.14341 72.5619 4.24905 70.7886 4.24905ZM71.5596 14.2721C73.1324 14.2721 74.2118 13.6707 74.2118 12.1133C74.2118 10.8488 73.2249 9.72315 71.5287 9.72315H67.6892V14.2721H71.5596ZM78.8584 4.23363V8.19657H84.8568V9.41475L78.8584 9.38391V14.2875H85.9825V15.4902H77.6094V3.01545H85.9825V4.23363H78.8584ZM92.5263 3.01545C95.1786 3.01545 96.6126 4.91211 96.6126 6.70083C96.6126 8.48955 95.2094 10.3091 92.5417 10.3091H88.7484V15.4902H87.4686V3.01545H92.5263ZM92.773 9.04467C93.9912 9.04467 95.3636 8.27367 95.3636 6.70083C95.3636 5.09715 93.9758 4.27989 92.773 4.27989H88.7484V9.04467H92.773ZM106.468 15.4902V9.39933H99.3752V15.4902H98.1108V3.01545H99.3752V8.19657H106.468V3.01545H107.733V15.4902H106.468ZM115.033 8.50497C117.484 8.50497 118.903 10.3091 118.903 11.9282C118.903 14.2721 117.654 15.4902 114.771 15.4902H109.882V3.01545H111.131V8.50497H115.033ZM115.002 14.2721C116.575 14.2721 117.654 13.6707 117.654 12.1133C117.654 10.8488 116.667 9.72315 114.971 9.72315H111.131V14.2721H115.002ZM121.617 15.4902H120.368V3.01545H121.617V15.4902ZM129.051 2.76873C127.57 2.76873 126.26 1.70475 126.26 0.0393929H127.262C127.262 0.825814 127.817 1.78185 129.051 1.78185C130.269 1.78185 130.808 0.825814 130.808 0.0393929H131.811C131.811 1.70475 130.515 2.76873 129.051 2.76873ZM132.628 3.01545H134.293V15.4902H133.029V4.46493L125.427 15.4902H123.792V3.01545H125.057V14.0408L132.628 3.01545ZM53.6693 27.9413H54.9645C54.3323 31.4417 51.7109 32.737 49.2437 32.737C45.6663 32.737 43.3687 30.1927 43.3687 26.2451C43.3687 24.2405 43.9701 22.5598 45.0957 21.4033C46.1443 20.3393 47.6092 19.7533 49.2437 19.7533C52.1735 19.7533 54.2398 21.4341 54.8874 24.256H53.5922C52.9291 21.8967 51.0479 21.0178 49.2437 21.0178C46.977 21.0178 44.6331 22.4981 44.6331 26.2451C44.6331 30.1156 46.977 31.4725 49.2437 31.4725C51.5876 31.4725 53.1758 30.2235 53.6693 27.9413ZM66.5212 21.2336H61.2938V32.4902H60.0294V21.2336H54.8174V20.0155H66.5212V21.2336ZM73.0341 28.9128H67.5292L66.2493 32.4902H64.9232L69.58 20.0155H70.9987L75.6709 32.4902H74.314L73.0341 28.9128ZM70.2894 21.1874L67.9609 27.6946H72.6024L70.2894 21.1874ZM85.328 32.4902V26.3993H78.2348V32.4902H76.9703V20.0155H78.2348V25.1966H85.328V20.0155H86.5924V32.4902H85.328ZM97.1921 31.3183V21.2182H92.3194V23.3462C92.3656 25.6129 91.8413 29.1749 90.947 31.3183H97.1921ZM98.4103 31.3337H100.893V35.0037H99.6747V32.5057H88.5877V35.0037H87.385V31.3337H89.2816C90.4227 30.2389 91.0549 26.5381 91.0858 23.485V20.0309H98.4103V31.3337ZM109.829 28.9128H104.324L103.044 32.4902H101.718L106.375 20.0155H107.793L112.466 32.4902H111.109L109.829 28.9128ZM107.084 21.1874L104.756 27.6946H109.397L107.084 21.1874ZM118.823 20.0155C121.475 20.0155 122.909 21.9121 122.909 23.7008C122.909 25.4896 121.506 27.3091 118.838 27.3091H115.045V32.4902H113.765V20.0155H118.823ZM119.07 26.0447C120.288 26.0447 121.66 25.2737 121.66 23.7008C121.66 22.0972 120.272 21.2799 119.07 21.2799H115.045V26.0447H119.07ZM134.754 21.2336H129.527V32.4902H128.262V21.2336H123.05V20.0155H134.754V21.2336Z" fill="#204E4A"></path><path fill-rule="evenodd" clip-rule="evenodd" d="M27.6057 0.623047H23.9455C22.7792 13.293 12.6039 28.1842 8.36133 34.2503H15.7988C23.9071 24.6074 27.6057 14.7773 27.6057 2.66495V0.623047ZM18.8488 34.2503H28.694C30.1674 34.2503 31.5804 33.665 32.6222 32.6232C33.6641 31.5814 34.2493 30.1683 34.2493 28.695V6.1784C34.2493 4.70503 33.6641 3.292 32.6222 2.25017C32.067 1.69494 31.4063 1.26937 30.6873 0.992965C30.6672 1.48921 30.6565 2.04471 30.6565 2.66495C30.6565 4.41434 30.7537 6.11557 30.8486 7.77513C31.2019 13.9594 31.5221 19.565 26.6565 24.9275C26.0412 25.6056 25.3381 26.3271 24.6064 27.078L24.6061 27.0783L24.606 27.0783C22.4096 29.3322 19.9559 31.8501 18.8488 34.2503ZM1.06144 30.8603C3.00563 28.4761 5.39987 26.0644 7.87272 23.5734C14.5561 16.841 21.8138 9.5302 22.3124 0.623047H17.4195C16.9276 10.4855 5.33478 20.1212 0.62207 23.1177V28.695C0.62207 29.4462 0.774215 30.1817 1.06144 30.8603ZM0.62207 20.1772C11.8622 12.4933 13.0576 7.26453 14.5482 0.744134V0.74413C14.5574 0.703819 14.5666 0.663458 14.5759 0.623047H10.6988C10.5287 1.03 10.3643 1.42845 10.2036 1.81773C7.95073 7.27502 6.44266 10.9282 0.62207 10.9283V20.1772ZM0.62207 7.67406C5.33225 7.67393 8.98869 4.79178 9.28091 0.623047H6.17743C4.70405 0.623047 3.29103 1.20834 2.2492 2.25017C1.20736 3.292 0.62207 4.70503 0.62207 6.1784V7.67406Z" fill="#A38D44"></path></svg> 