<svg width="32" height="32" viewBox="0 0 32 32" fill="none" xmlns="http://www.w3.org/2000/svg">
<rect x="0.5" y="0.5" width="31" height="31" rx="15.5" fill="white"/>
<rect x="0.5" y="0.5" width="31" height="31" rx="15.5" stroke="#BFBFBF"/>
<path d="M25.1957 11.3882C24.9796 10.5849 24.3463 9.95174 23.5432 9.73544C22.0759 9.33398 16.2068 9.33398 16.2068 9.33398C16.2068 9.33398 10.3379 9.33398 8.87068 9.72022C8.08298 9.93629 7.43422 10.5851 7.21815 11.3882C6.83203 12.8553 6.83203 15.898 6.83203 15.898C6.83203 15.898 6.83203 18.9559 7.21815 20.4077C7.43445 21.2109 8.06754 21.8441 8.8708 22.0604C10.3534 22.462 16.207 22.462 16.207 22.462C16.207 22.462 22.0759 22.462 23.5432 22.0757C24.3464 21.8595 24.9796 21.2263 25.1959 20.4232C25.5819 18.9559 25.5819 15.9134 25.5819 15.9134C25.5819 15.9134 25.5974 12.8553 25.1957 11.3882ZM14.3382 18.7089V13.0871L19.2187 15.898L14.3382 18.7089Z" fill="#5D5D5D" fill-opacity="0.66"/>
</svg>
